[
    {
        "start": {
            "timestamp": {
                "n": 0,
                "pts": 0,
                "pts_time": 0
            },
            "event": {
                "type": "start_marker",
                "trial_type": "animation",
                "trial_index": "trial-1-1"
            }
        },
        "end": {
            "timestamp": {
                "n": 90,
                "pts": 90,
                "pts_time": 3
            },
            "event": {
                "type": "end_marker",
                "trial_type": "animation",
                "trial_index": "0",
                "time_elapsed": "3003"
            }
        }
    },
    {
        "start": {
            "timestamp": {
                "n": 91,
                "pts": 91,
                "pts_time": 3.03333
            },
            "event": {
                "type": "start_marker",
                "trial_type": "disks",
                "trial_index": "disk-condition-1-1"
            }
        },
        "end": {
            "timestamp": {
                "n": 316,
                "pts": 316,
                "pts_time": 10.5333
            },
            "event": {
                "type": "end_marker",
                "trial_type": "disks",
                "trial_index": "1",
                "time_elapsed": "11084"
            }
        }
    },
    {
        "start": {
            "timestamp": {
                "n": 317,
                "pts": 317,
                "pts_time": 10.5667
            },
            "event": {
                "type": "start_marker",
                "trial_type": "animation",
                "trial_index": "trial-1-3"
            }
        },
        "end": {
            "timestamp": {
                "n": 405,
                "pts": 405,
                "pts_time": 13.5
            },
            "event": {
                "type": "end_marker",
                "trial_type": "animation",
                "trial_index": "2",
                "time_elapsed": "14087"
            }
        }
    },
    {
        "start": {
            "timestamp": {
                "n": 406,
                "pts": 406,
                "pts_time": 13.5333
            },
            "event": {
                "type": "start_marker",
                "trial_type": "disks",
                "trial_index": "disk-condition-1-2"
            }
        },
        "end": {
            "timestamp": {
                "n": 647,
                "pts": 647,
                "pts_time": 21.5667
            },
            "event": {
                "type": "end_marker",
                "trial_type": "disks",
                "trial_index": "3",
                "time_elapsed": "22134"
            }
        }
    },
    {
        "start": {
            "timestamp": {
                "n": 648,
                "pts": 648,
                "pts_time": 21.6
            },
            "event": {
                "type": "start_marker",
                "trial_type": "animation",
                "trial_index": "trial-1-5"
            }
        },
        "end": {
            "timestamp": {
                "n": 745,
                "pts": 745,
                "pts_time": 24.8333
            },
            "event": {
                "type": "end_marker",
                "trial_type": "animation",
                "trial_index": "4",
                "time_elapsed": "25138"
            }
        }
    },
    {
        "start": {
            "timestamp": {
                "n": 746,
                "pts": 746,
                "pts_time": 24.8667
            },
            "event": {
                "type": "start_marker",
                "trial_type": "disks",
                "trial_index": "disk-condition-1-1"
            }
        },
        "end": {
            "timestamp": {
                "n": 980,
                "pts": 980,
                "pts_time": 32.6667
            },
            "event": {
                "type": "end_marker",
                "trial_type": "disks",
                "trial_index": "5",
                "time_elapsed": "33184"
            }
        }
    },
    {
        "start": {
            "timestamp": {
                "n": 981,
                "pts": 981,
                "pts_time": 32.7
            },
            "event": {
                "type": "start_marker",
                "trial_type": "animation",
                "trial_index": "trial-1-7"
            }
        },
        "end": {
            "timestamp": {
                "n": 1086,
                "pts": 1086,
                "pts_time": 36.2
            },
            "event": {
                "type": "end_marker",
                "trial_type": "animation",
                "trial_index": "6",
                "time_elapsed": "36188"
            }
        }
    },
    {
        "start": {
            "timestamp": {
                "n": 1087,
                "pts": 1087,
                "pts_time": 36.2333
            },
            "event": {
                "type": "start_marker",
                "trial_type": "disks",
                "trial_index": "disk-condition-1-2"
            }
        },
        "end": {
            "timestamp": {
                "n": 1315,
                "pts": 1315,
                "pts_time": 43.8333
            },
            "event": {
                "type": "end_marker",
                "trial_type": "disks",
                "trial_index": "7",
                "time_elapsed": "44233"
            }
        }
    },
    {
        "start": {
            "timestamp": {
                "n": 1416,
                "pts": 1416,
                "pts_time": 47.2
            },
            "event": {
                "type": "start_marker",
                "trial_type": "disks",
                "trial_index": "disk-condition-1-1"
            }
        },
        "end": {
            "timestamp": {
                "n": 1637,
                "pts": 1637,
                "pts_time": 54.5667
            },
            "event": {
                "type": "end_marker",
                "trial_type": "disks",
                "trial_index": "9",
                "time_elapsed": "55284"
            }
        }
    },
    {
        "start": {
            "timestamp": {
                "n": 1638,
                "pts": 1638,
                "pts_time": 54.6
            },
            "event": {
                "type": "start_marker",
                "trial_type": "animation",
                "trial_index": "trial-1-11"
            }
        },
        "end": {
            "timestamp": {
                "n": 1732,
                "pts": 1732,
                "pts_time": 57.7333
            },
            "event": {
                "type": "end_marker",
                "trial_type": "animation",
                "trial_index": "10",
                "time_elapsed": "58286"
            }
        }
    },
    {
        "start": {
            "timestamp": {
                "n": 1733,
                "pts": 1733,
                "pts_time": 57.7667
            },
            "event": {
                "type": "start_marker",
                "trial_type": "disks",
                "trial_index": "disk-condition-1-2"
            }
        },
        "end": {
            "timestamp": {
                "n": 1968,
                "pts": 1968,
                "pts_time": 65.6
            },
            "event": {
                "type": "end_marker",
                "trial_type": "disks",
                "trial_index": "11",
                "time_elapsed": "66363"
            }
        }
    },
    {
        "start": {
            "timestamp": {
                "n": 1969,
                "pts": 1969,
                "pts_time": 65.6333
            },
            "event": {
                "type": "start_marker",
                "trial_type": "animation",
                "trial_index": "trial-1-13"
            }
        },
        "end": {
            "timestamp": {
                "n": 2076,
                "pts": 2076,
                "pts_time": 69.2
            },
            "event": {
                "type": "end_marker",
                "trial_type": "animation",
                "trial_index": "12",
                "time_elapsed": "69367"
            }
        }
    },
    {
        "start": {
            "timestamp": {
                "n": 2077,
                "pts": 2077,
                "pts_time": 69.2333
            },
            "event": {
                "type": "start_marker",
                "trial_type": "disks",
                "trial_index": "disk-condition-1-1"
            }
        },
        "end": {
            "timestamp": {
                "n": 2298,
                "pts": 2298,
                "pts_time": 76.6
            },
            "event": {
                "type": "end_marker",
                "trial_type": "disks",
                "trial_index": "13",
                "time_elapsed": "77416"
            }
        }
    },
    {
        "start": {
            "timestamp": {
                "n": 2299,
                "pts": 2299,
                "pts_time": 76.6333
            },
            "event": {
                "type": "start_marker",
                "trial_type": "animation",
                "trial_index": "trial-1-23"
            }
        },
        "end": {
            "timestamp": {
                "n": 2389,
                "pts": 2389,
                "pts_time": 79.6333
            },
            "event": {
                "type": "end_marker",
                "trial_type": "animation",
                "trial_index": "14",
                "time_elapsed": "80422"
            }
        }
    },
    {
        "start": {
            "timestamp": {
                "n": 2390,
                "pts": 2390,
                "pts_time": 79.6667
            },
            "event": {
                "type": "start_marker",
                "trial_type": "disks",
                "trial_index": "no-disk-condition"
            }
        },
        "end": {
            "timestamp": {
                "n": 2625,
                "pts": 2625,
                "pts_time": 87.5
            },
            "event": {
                "type": "end_marker",
                "trial_type": "disks",
                "trial_index": "15",
                "time_elapsed": "88466"
            }
        }
    }
]